<?xml version="1.0" encoding="UTF-8"?>
<svg version="1.1" xmlns="http://www.w3.org/2000/svg" width="472" height="480">
<path d="M0 0 C0.64211426 0.33580078 1.28422852 0.67160156 1.94580078 1.01757812 C18.28343658 9.57828811 32.6738703 20.29273081 46 33 C47.32665194 34.13287132 48.65936258 35.25871415 50 36.375 C89.07321701 70.42220154 113.25437894 125.49391883 117.27734375 176.51757812 C120.96658951 236.03093728 105.23482854 295.07906464 65.62109375 340.7421875 C64.12689067 342.40578416 62.62229049 344.06012516 61.10546875 345.703125 C58.48385333 348.56306909 55.99068283 351.5232624 53.5078125 354.50390625 C52 356 52 356 49 357 C49 357.66 49 358.32 49 359 C46.57999516 361.58236938 43.72347688 363.74744131 41 366 C40.47954102 366.43666992 39.95908203 366.87333984 39.42285156 367.32324219 C29.78207965 375.38774512 19.72112877 382.44704702 9 389 C8.38769531 389.37640625 7.77539062 389.7528125 7.14453125 390.140625 C-40.56678051 419.20976859 -101.70328555 427.38887129 -155.8125 414.75 C-189.64009579 406.3213149 -221.18381013 391.37113782 -247.86328125 368.77734375 C-250.07656969 366.87265911 -250.07656969 366.87265911 -253 365 C-253 364.34 -253 363.68 -253 363 C-253.58555664 362.73896484 -254.17111328 362.47792969 -254.77441406 362.20898438 C-257.13607992 360.92607857 -258.70913291 359.54932909 -260.609375 357.65625 C-261.61158081 356.66032837 -261.61158081 356.66032837 -262.6340332 355.64428711 C-263.33230225 354.93667236 -264.03057129 354.22905762 -264.75 353.5 C-265.47082764 352.77240479 -266.19165527 352.04480957 -266.93432617 351.29516602 C-272.01075166 346.11984539 -276.69567781 340.83906002 -281 335 C-281.84262501 333.90798517 -282.68646635 332.81690826 -283.53125 331.7265625 C-305.86181421 302.53911271 -319.69448525 268.09243091 -326 232 C-326.12987305 231.28279785 -326.25974609 230.5655957 -326.39355469 229.82666016 C-335.77605242 175.30567546 -320.81725651 115.70242123 -289.52734375 70.5546875 C-282.06500677 59.99093327 -273.96300955 50.3224215 -265 41 C-264.48034668 40.45311523 -263.96069336 39.90623047 -263.42529297 39.34277344 C-247.08192261 22.19909637 -227.90745128 9.01352049 -207 -2 C-206.36465332 -2.33741211 -205.72930664 -2.67482422 -205.07470703 -3.02246094 C-141.70171014 -36.15549935 -62.46955568 -33.52570072 0 0 Z " fill="#5C92FE" transform="translate(340,44)"/>
<path d="M0 0 C1.35622245 0.96873032 2.69417053 1.96434215 4 3 C5.34415377 2.71340005 6.6769046 2.37189709 8 2 C12.25472781 1.5430662 15.76959957 1.30977537 19.5625 3.4375 C21.71793454 7.27979636 21.87774661 10.70366134 21 15 C17.5653028 19.683678 12.56675062 23.38375513 6.76171875 24.38671875 C1.33843866 24.65104669 -1.75780033 23.56730427 -6 20 C-6.928125 19.278125 -7.85625 18.55625 -8.8125 17.8125 C-11.70197994 14.09745437 -12.32612252 10.67442274 -12 6 C-9.76201023 0.04283884 -5.96824558 -0.52353031 0 0 Z " fill="#010207" transform="translate(231,230)"/>
<path d="M0 0 C2.625 2 2.625 2 4 5 C4.26887628 7.88898978 3.9809688 10.26811596 3 13 C0.40959979 15.96045738 -1.12870035 16.85478339 -5 17.5 C-8.95227601 16.84128733 -10.45872167 16.13922618 -13 13 C-13.64377165 9.57961323 -13.82133394 6.39295884 -13 3 C-9.22624656 -0.82418222 -5.08659743 -0.9688757 0 0 Z " fill="#02040B" transform="translate(203,234)"/>
<path d="M0 0 C2.5 1.5 2.5 1.5 4 4 C4.78550518 7.99298467 4.60146332 10.95397683 2.5625 14.5 C-1.24572891 16.72920717 -4.70134365 16.90705593 -9 16 C-12.06018871 13.46228253 -12.83450185 11.88265681 -13.5625 8 C-12.10977689 0.25214342 -6.85526767 -0.97932395 0 0 Z " fill="#030510" transform="translate(276,234)"/>
<path d="M0 0 C0.33 0 0.66 0 1 0 C2.36914933 28.64968261 2.04537963 56.20687035 -6 84 C-6.33 84 -6.66 84 -7 84 C-7 80.37 -7 76.74 -7 73 C-6.34 73 -5.68 73 -5 73 C-4.96261719 72.23558594 -4.92523438 71.47117187 -4.88671875 70.68359375 C-4.52516827 64.79244766 -3.88616973 59.24077122 -2.5 53.5 C-0.21186619 42.98469721 -0.43053396 32.27471906 -0.3125 21.5625 C-0.27924978 19.46287038 -0.24475332 17.3632601 -0.20898438 15.26367188 C-0.1249763 10.17588984 -0.05775818 5.08814495 0 0 Z " fill="#9EB7EA" transform="translate(456,217)"/>
<path d="M0 0 C0 0.33 0 0.66 0 1 C-4.62 1 -9.24 1 -14 1 C-14 0.34 -14 -0.32 -14 -1 C-32.81 -1.33 -51.62 -1.66 -71 -2 C-71 -2.33 -71 -2.66 -71 -3 C-47.72377511 -5.88271218 -22.95261348 -4.76840609 0 0 Z " fill="#A5C1EB" transform="translate(280,22)"/>
<path d="M0 0 C0.33 0 0.66 0 1 0 C1.20760909 12.01825946 0.57827885 23.99917584 0 36 C-0.33 36 -0.66 36 -1 36 C-1.33 43.26 -1.66 50.52 -2 58 C-2.33 58 -2.66 58 -3 58 C-3.32725495 38.4234412 -3.34412017 19.36802933 0 0 Z " fill="#9CBBF3" transform="translate(15,200)"/>
<path d="M0 0 C0.66 0.33 1.32 0.66 2 1 C1.09373216 2.2989839 0.17450463 3.58893167 -0.75 4.875 C-1.26046875 5.59429687 -1.7709375 6.31359375 -2.296875 7.0546875 C-4.10904019 9.1245459 -5.43852945 10.04196968 -8 11 C-8.99 11 -9.98 11 -11 11 C-11.2475 11.61875 -11.495 12.2375 -11.75 12.875 C-13.20628639 15.35068687 -14.37812506 15.95125002 -17 17 C-17 17.99 -17 18.98 -17 20 C-18.75 21.75 -18.75 21.75 -21 23 C-23.140625 22.578125 -23.140625 22.578125 -25 22 C-17.23848625 13.81081101 -8.99718635 6.79057714 0 0 Z " fill="#78A0EE" transform="translate(102,61)"/>
<path d="M0 0 C-7.9115807 4.43370971 -15.8611738 8.53597536 -24.25 12 C-24.97630615 12.30236572 -25.7026123 12.60473145 -26.45092773 12.91625977 C-29.44641961 14.12586184 -31.73916365 15 -35 15 C-35 14.34 -35 13.68 -35 13 C-33.68 13 -32.36 13 -31 13 C-30.76539063 12.35546875 -30.53078125 11.7109375 -30.2890625 11.046875 C-29 9 -29 9 -26.8359375 8.390625 C-26.02382813 8.34421875 -25.21171875 8.2978125 -24.375 8.25 C-23.55773437 8.19328125 -22.74046875 8.1365625 -21.8984375 8.078125 C-21.27195312 8.05234375 -20.64546875 8.0265625 -20 8 C-20 7.34 -20 6.68 -20 6 C-18.35 6 -16.7 6 -15 6 C-15 5.34 -15 4.68 -15 4 C-11.535 3.505 -11.535 3.505 -8 3 C-8 2.34 -8 1.68 -8 1 C-4.85571151 -0.9090323 -3.47925125 -1.04523725 0 0 Z " fill="#83A9EE" transform="translate(346,435)"/>
<path d="M0 0 C1.27746597 0.00141495 2.55493195 0.0028299 3.87110901 0.00428772 C7.24615371 0.00892109 10.62112922 0.01788602 13.99615479 0.0289917 C17.44860236 0.03927199 20.90105712 0.04379944 24.35351562 0.04882812 C31.1119981 0.05983159 37.87044818 0.07655058 44.62890625 0.09765625 C44.62890625 0.42765625 44.62890625 0.75765625 44.62890625 1.09765625 C26.80890625 1.09765625 8.98890625 1.09765625 -9.37109375 1.09765625 C-9.37109375 1.75765625 -9.37109375 2.41765625 -9.37109375 3.09765625 C-13.00109375 3.09765625 -16.63109375 3.09765625 -20.37109375 3.09765625 C-20.37109375 2.43765625 -20.37109375 1.77765625 -20.37109375 1.09765625 C-13.59472447 -0.15851484 -6.87390505 -0.02878437 0 0 Z " fill="#6391EF" transform="translate(214.37109375,19.90234375)"/>
<path d="M0 0 C0.33 0 0.66 0 1 0 C1.35030712 7.95294473 0.42014209 14.98098379 -1.5 22.6875 C-1.73847656 23.68716797 -1.97695313 24.68683594 -2.22265625 25.71679688 C-2.80414379 28.14741481 -3.39665213 30.5747341 -4 33 C-4.33 33 -4.66 33 -5 33 C-5 29.37 -5 25.74 -5 22 C-4.34 22 -3.68 22 -3 22 C-2.95101563 21.16597656 -2.90203125 20.33195312 -2.8515625 19.47265625 C-2.40682732 12.77862499 -1.6531796 6.50250641 0 0 Z " fill="#81A4EF" transform="translate(454,268)"/>
<path d="M0 0 C0.60546875 1.86328125 0.60546875 1.86328125 1 4 C-1.31787009 7.00464642 -3.2273236 8.46104623 -7 9 C-7.0825 9.94875 -7.165 10.8975 -7.25 11.875 C-8 15 -8 15 -10 16.25 C-10.66 16.4975 -11.32 16.745 -12 17 C-12.33 17.66 -12.66 18.32 -13 19 C-13.99 18.67 -14.98 18.34 -16 18 C-10.95630444 11.67536589 -5.89401276 5.55288018 0 0 Z " fill="#87ABF2" transform="translate(76,84)"/>
<path d="M0 0 C0 0.66 0 1.32 0 2 C-2.31 2.66 -4.62 3.32 -7 4 C-7 4.66 -7 5.32 -7 6 C-7.66 6 -8.32 6 -9 6 C-9 6.66 -9 7.32 -9 8 C-10.98 8 -12.96 8 -15 8 C-15.66 9.32 -16.32 10.64 -17 12 C-19.97 11.505 -19.97 11.505 -23 11 C-19.2050411 7.78341719 -14.85015351 5.88864085 -10.375 3.8125 C-9.59898437 3.44447266 -8.82296875 3.07644531 -8.0234375 2.69726562 C-2.2585952 0 -2.2585952 0 0 0 Z " fill="#8AADF2" transform="translate(150,35)"/>
<path d="M0 0 C1.8461867 2.76928005 2.41196197 4.13698806 3.0703125 7.2734375 C3.24433594 8.0984375 3.41835938 8.9234375 3.59765625 9.7734375 C3.77167969 10.63195312 3.94570313 11.49046875 4.125 12.375 C4.30675781 13.22578125 4.48851562 14.0765625 4.67578125 14.953125 C5.51789399 19.01806019 6.25778745 22.8238433 6 27 C5.34 27 4.68 27 4 27 C3.79503906 25.86820313 3.59007812 24.73640625 3.37890625 23.5703125 C3.10693028 22.08851239 2.83478613 20.60674315 2.5625 19.125 C2.42779297 18.37863281 2.29308594 17.63226563 2.15429688 16.86328125 C1.45463389 12.81466622 1.45463389 12.81466622 0 9 C-0.06950541 7.45976004 -0.08452357 5.91665012 -0.0625 4.375 C-0.05347656 3.55773437 -0.04445313 2.74046875 -0.03515625 1.8984375 C-0.02355469 1.27195313 -0.01195312 0.64546875 0 0 Z " fill="#8DAEF1" transform="translate(449,181)"/>
<path d="M0 0 C2 3 2 3 2 5 C0.390625 6.65625 0.390625 6.65625 -1.75 8.5 C-2.44609375 9.1084375 -3.1421875 9.716875 -3.859375 10.34375 C-5.84460792 11.87976963 -7.71872045 12.9723966 -10 14 C-10 13.34 -10 12.68 -10 12 C-10.66 11.67 -11.32 11.34 -12 11 C-11.34 10.01 -10.68 9.02 -10 8 C-8.68 8.66 -7.36 9.32 -6 10 C-6 9.01 -6 8.02 -6 7 C-5.01 7 -4.02 7 -3 7 C-2.87625 6.401875 -2.7525 5.80375 -2.625 5.1875 C-2 3 -2 3 0 0 Z " fill="#7CA4F4" transform="translate(387,398)"/>
<path d="M0 0 C0.66 0 1.32 0 2 0 C2.65192688 2.49854767 3.29663064 4.9986137 3.9375 7.5 C4.21110352 8.54414063 4.21110352 8.54414063 4.49023438 9.609375 C5.70965566 14.39837494 6.47422365 19.08537471 7 24 C4.69642724 20.54464086 3.59113887 17.04916904 2.375 13.125 C2.14554688 12.41730469 1.91609375 11.70960938 1.6796875 10.98046875 C0.50091867 7.21261837 -0.29785007 3.99746145 0 0 Z " fill="#92B3EE" transform="translate(19,294)"/>
<path d="M0 0 C6.54737841 -0.15856416 12.61632812 0.38979817 19.0625 1.5 C19.92810547 1.64308594 20.79371094 1.78617188 21.68554688 1.93359375 C23.7914397 2.28263676 25.89588495 2.64039539 28 3 C28 3.33 28 3.66 28 4 C23.38 4 18.76 4 14 4 C14 3.34 14 2.68 14 2 C7.07 1.505 7.07 1.505 0 1 C0 0.67 0 0.34 0 0 Z " fill="#94B7F0" transform="translate(252,19)"/>
<path d="M0 0 C1.37478516 0.01740234 1.37478516 0.01740234 2.77734375 0.03515625 C3.69644531 0.04417969 4.61554688 0.05320312 5.5625 0.0625 C6.27277344 0.07410156 6.98304688 0.08570313 7.71484375 0.09765625 C2.49783227 3.57566391 -3.71784335 5.31522514 -9.97265625 4.78515625 C-10.73578125 4.55828125 -11.49890625 4.33140625 -12.28515625 4.09765625 C-12.28515625 3.76765625 -12.28515625 3.43765625 -12.28515625 3.09765625 C-11.32802734 2.89849609 -11.32802734 2.89849609 -10.3515625 2.6953125 C-9.52527344 2.51871094 -8.69898438 2.34210938 -7.84765625 2.16015625 C-7.02394531 1.98613281 -6.20023437 1.81210937 -5.3515625 1.6328125 C-2.85724112 0.98683513 -2.63711578 0.11269726 0 0 Z " fill="#85AAF1" transform="translate(294.28515625,452.90234375)"/>
<path d="M0 0 C3 2 3 2 3.6875 4.625 C3.8421875 5.800625 3.8421875 5.800625 4 7 C4.99 7 5.98 7 7 7 C10.22265625 13.703125 10.22265625 13.703125 9 18 C7.49480613 15.37785672 5.99568681 12.75255792 4.5 10.125 C3.85611328 9.00544922 3.85611328 9.00544922 3.19921875 7.86328125 C2.79316406 7.14785156 2.38710938 6.43242187 1.96875 5.6953125 C1.59169922 5.03547363 1.21464844 4.37563477 0.82617188 3.69580078 C0 2 0 2 0 0 Z " fill="#9AB6F1" transform="translate(36,341)"/>
<path d="M0 0 C0.66 0.33 1.32 0.66 2 1 C1.01 2.485 1.01 2.485 0 4 C-0.24055468 6.05709596 -0.24055468 6.05709596 -0.125 8.1875 C-0.08375 9.445625 -0.0425 10.70375 0 12 C0.99 12 1.98 12 3 12 C3.33 12.66 3.66 13.32 4 14 C6.52733235 14.65555119 6.52733235 14.65555119 9 15 C9 15.33 9 15.66 9 16 C5.46402825 16.3289276 3.35390546 16.16925913 0.125 14.625 C-2.71609462 11.11541253 -2.48196301 8.63782764 -2.37109375 4.2421875 C-2 2 -2 2 0 0 Z " fill="#081336" transform="translate(192,235)"/>
<path d="M0 0 C-3.24027843 1.84494322 -6.20447945 2.53659594 -9.875 3.125 C-11.38707031 3.37636719 -11.38707031 3.37636719 -12.9296875 3.6328125 C-15.98561748 3.99827995 -18.92557891 4.06424163 -22 4 C-15.37145219 -0.41903187 -7.7922478 -0.16939669 0 0 Z " fill="#96B6EE" transform="translate(284,458)"/>
<path d="M0 0 C0.66 0.33 1.32 0.66 2 1 C1.360625 1.78375 0.72125 2.5675 0.0625 3.375 C-1.98142313 5.79539281 -1.98142313 5.79539281 -3 8 C-2.34 8.33 -1.68 8.66 -1 9 C-1.66 9 -2.32 9 -3 9 C-2.67 11.31 -2.34 13.62 -2 16 C-2.66 15.67 -3.32 15.34 -4 15 C-4.484375 13.07421875 -4.484375 13.07421875 -4.75 10.6875 C-4.84796875 9.90761719 -4.9459375 9.12773437 -5.046875 8.32421875 C-4.99246576 5.62642726 -4.47501839 4.24605073 -3 2 C-2.01 1.34 -1.02 0.68 0 0 Z " fill="#050F2B" transform="translate(224,230)"/>
<path d="M0 0 C3.63 0.33 7.26 0.66 11 1 C11 1.66 11 2.32 11 3 C12.32 3 13.64 3 15 3 C15 3.99 15 4.98 15 6 C4.44191344 2.92482916 4.44191344 2.92482916 0 1 C0 0.67 0 0.34 0 0 Z " fill="#89ACF1" transform="translate(148,446)"/>
<path d="M0 0 C0.66 0.33 1.32 0.66 2 1 C0.515 3.475 0.515 3.475 -1 6 C-1.99 5.67 -2.98 5.34 -4 5 C-4 5.66 -4 6.32 -4 7 C-6.31 7.33 -8.62 7.66 -11 8 C-8.83385197 5.69125289 -6.60793392 3.94709819 -3.9375 2.25 C-2.89916016 1.57710937 -2.89916016 1.57710937 -1.83984375 0.890625 C-1.23269531 0.59671875 -0.62554687 0.3028125 0 0 Z " fill="#8CAFF3" transform="translate(125,46)"/>
<path d="M0 0 C-2.38556092 2.76222843 -4.49203597 3.98658817 -8 5 C-10.69212002 5.15512216 -13.29891626 5.09156216 -16 5 C-13.13879225 3.09252817 -10.64745007 1.99646294 -7.4375 0.8125 C-6.46683594 0.44769531 -5.49617187 0.08289063 -4.49609375 -0.29296875 C-2 -1 -2 -1 0 0 Z " fill="#8CAFF1" transform="translate(166,30)"/>
<path d="M0 0 C2.97 0 5.94 0 9 0 C5.80009492 2.74277578 2.99500618 4.6302836 -1 6 C-0.67 4.02 -0.34 2.04 0 0 Z " fill="#7DA5F1" transform="translate(348,427)"/>
<path d="M0 0 C0.66 0.66 1.32 1.32 2 2 C1.828125 4.71484375 1.828125 4.71484375 1.25 7.9375 C1.06953125 8.99839844 0.8890625 10.05929687 0.703125 11.15234375 C0 14 0 14 -2 17 C-2 13.37 -2 9.74 -2 6 C-1.34 6 -0.68 6 0 6 C0 4.02 0 2.04 0 0 Z " fill="#87ACF2" transform="translate(451,284)"/>
<path d="M0 0 C0.33 0 0.66 0 1 0 C1.33 2.64 1.66 5.28 2 8 C1.01 7.67 0.02 7.34 -1 7 C-1 7.99 -1 8.98 -1 10 C-0.34 10.33 0.32 10.66 1 11 C-0.375 12.5 -0.375 12.5 -2 14 C-2.66 14 -3.32 14 -4 14 C-2.85248597 9.2460133 -1.61737483 4.62107093 0 0 Z " fill="#85ACF5" transform="translate(26,161)"/>
<path d="M0 0 C2 0 2 0 4.1875 2.125 C6 5 6 5 5.75 8.3125 C5.5025 9.199375 5.255 10.08625 5 11 C0 4.63636364 0 4.63636364 0 0 Z " fill="#84A9F1" transform="translate(31,330)"/>
<path d="M0 0 C0.99 0.33 1.98 0.66 3 1 C3 1.66 3 2.32 3 3 C3.66 3.33 4.32 3.66 5 4 C5 4.99 5 5.98 5 7 C1.22454612 5.90931332 -1.47043472 5.0916909 -4 2 C-2.68 2 -1.36 2 0 2 C0 1.34 0 0.68 0 0 Z " fill="#83A9F3" transform="translate(130,433)"/>
<path d="M0 0 C0.66 0 1.32 0 2 0 C1.57316761 1.58624235 1.13303842 3.1689098 0.6875 4.75 C0.44386719 5.63171875 0.20023437 6.5134375 -0.05078125 7.421875 C-1.02125331 10.05772505 -2.21005644 11.85407326 -4 14 C-4 12.02 -4 10.04 -4 8 C-3.34 8 -2.68 8 -2 8 C-2 6.02 -2 4.04 -2 2 C-1.34 2 -0.68 2 0 2 C0 1.34 0 0.68 0 0 Z " fill="#8AACF2" transform="translate(443,315)"/>
<path d="M0 0 C-1.32 0.33 -2.64 0.66 -4 1 C-4 1.66 -4 2.32 -4 3 C-7.63 3 -11.26 3 -15 3 C-15 2.34 -15 1.68 -15 1 C-9.91913204 0.15318867 -5.15171623 -0.09038099 0 0 Z " fill="#88ACEE" transform="translate(209,20)"/>
<path d="M0 0 C4.98012761 1.50912958 8.24259942 4.55661849 12 8 C11.34 8.66 10.68 9.32 10 10 C7.95880212 8.38405168 5.95927063 6.7143618 4 5 C4 4.34 4 3.68 4 3 C2.68 3 1.36 3 0 3 C0 2.01 0 1.02 0 0 Z " fill="#8BAFF1" transform="translate(364,60)"/>
<path d="M0 0 C1.73546076 2.60319113 2.65175233 4.52267237 3.625 7.4375 C3.88539063 8.19933594 4.14578125 8.96117187 4.4140625 9.74609375 C5 12 5 12 5 16 C4.34 16 3.68 16 3 16 C3 14.35 3 12.7 3 11 C2.34 11 1.68 11 1 11 C0.67 7.37 0.34 3.74 0 0 Z " fill="#8EAFEF" transform="translate(444,165)"/>
<path d="M0 0 C0.12375 0.639375 0.2475 1.27875 0.375 1.9375 C0.684375 2.9584375 0.684375 2.9584375 1 4 C1.66 4.33 2.32 4.66 3 5 C0.69 6.32 -1.62 7.64 -4 9 C-4 5.00095031 -2.27413033 3.19799578 0 0 Z " fill="#85A9F6" transform="translate(51,114)"/>
<path d="M0 0 C2.97 0.99 5.94 1.98 9 3 C9 3.99 9 4.98 9 6 C6.36 5.34 3.72 4.68 1 4 C0.67 2.68 0.34 1.36 0 0 Z " fill="#83A7F2" transform="translate(328,39)"/>
<path d="M0 0 C-1.78881736 1.00508801 -3.58114696 2.00392736 -5.375 3 C-6.37273437 3.556875 -7.37046875 4.11375 -8.3984375 4.6875 C-11 6 -11 6 -13 6 C-13 5.01 -13 4.02 -13 3 C-11.35 3 -9.7 3 -8 3 C-8 2.34 -8 1.68 -8 1 C-4.85571151 -0.9090323 -3.47925125 -1.04523725 0 0 Z " fill="#9AB8F0" transform="translate(346,435)"/>
<path d="M0 0 C3 2 3 2 3.46875 3.98828125 C3.53029489 8.56568213 3.50698808 10.3789396 0.5 14.0625 C-0.325 14.701875 -1.15 15.34125 -2 16 C-2 15.01 -2 14.02 -2 13 C-1.34 13 -0.68 13 0 13 C0 12.01 0 11.02 0 10 C0.66 10 1.32 10 2 10 C1.34 6.7 0.68 3.4 0 0 Z " fill="#030828" transform="translate(249,234)"/>
<path d="M0 0 C0 0.66 0 1.32 0 2 C-4.92737019 3.97094808 -8.78020872 4.1799928 -14 4 C-9.52281208 1.01520806 -5.36175907 0 0 0 Z " fill="#91B5F1" transform="translate(181,25)"/>
<path d="M0 0 C1.65 0 3.3 0 5 0 C3.02 2.31 1.04 4.62 -1 7 C-1.66 5.68 -2.32 4.36 -3 3 C-2.01 2.67 -1.02 2.34 0 2 C0 1.34 0 0.68 0 0 Z " fill="#91B3F4" transform="translate(392,394)"/>
<path d="M0 0 C0.66 0 1.32 0 2 0 C0.66654496 3.59007126 -0.8943231 6.79570907 -3 10 C-3.33 10 -3.66 10 -4 10 C-4 8.02 -4 6.04 -4 4 C-3.34 4 -2.68 4 -2 4 C-2 3.34 -2 2.68 -2 2 C-1.34 2 -0.68 2 0 2 C0 1.34 0 0.68 0 0 Z " fill="#8CADF0" transform="translate(425,353)"/>
<path d="M0 0 C0 0.33 0 0.66 0 1 C-0.56589844 1.13277344 -1.13179687 1.26554688 -1.71484375 1.40234375 C-2.81505859 1.66724609 -2.81505859 1.66724609 -3.9375 1.9375 C-5.03384766 2.19853516 -5.03384766 2.19853516 -6.15234375 2.46484375 C-7.99969898 2.83887569 -7.99969898 2.83887569 -9 4 C-9.36760731 6.32817964 -9.70241581 8.6618385 -10 11 C-10.33 11 -10.66 11 -11 11 C-11.33 8.03 -11.66 5.06 -12 2 C-7.8794254 0.00214565 -4.54805635 -0.17835515 0 0 Z " fill="#5274C5" transform="translate(200,233)"/>
<path d="M0 0 C0.33 0 0.66 0 1 0 C2.19876651 5.44893869 1.91360308 8.22169095 -1 13 C-1.33 13 -1.66 13 -2 13 C-2.19294408 8.17639811 -1.75747614 4.50353262 0 0 Z " fill="#89ACEE" transform="translate(21,176)"/>
<path d="M0 0 C4.455 2.97 4.455 2.97 9 6 C8.34 6.66 7.68 7.32 7 8 C7 7.34 7 6.68 7 6 C4.03 5.505 4.03 5.505 1 5 C1 4.34 1 3.68 1 3 C0.34 3 -0.32 3 -1 3 C-0.67 2.01 -0.34 1.02 0 0 Z " fill="#89ADF1" transform="translate(355,53)"/>
<path d="M0 0 C0.66 0 1.32 0 2 0 C2.33 0.99 2.66 1.98 3 3 C3.515625 3.515625 4.03125 4.03125 4.5625 4.5625 C5.036875 5.036875 5.51125 5.51125 6 6 C6 6.66 6 7.32 6 8 C6.66 8.33 7.32 8.66 8 9 C7.01 9 6.02 9 5 9 C3.39453125 7.25 3.39453125 7.25 1.8125 5 C1.28269531 4.2575 0.75289062 3.515 0.20703125 2.75 C-0.19128906 2.1725 -0.58960938 1.595 -1 1 C-0.67 0.67 -0.34 0.34 0 0 Z " fill="#90B0F3" transform="translate(56,372)"/>
<path d="M0 0 C0 0.99 0 1.98 0 3 C-1.75 4.75 -1.75 4.75 -4 6 C-6.25 5.6875 -6.25 5.6875 -8 5 C-3.375 0 -3.375 0 0 0 Z " fill="#7CA6EF" transform="translate(85,78)"/>
<path d="M0 0 C0.33 0.99 0.66 1.98 1 3 C-0.75 5.0625 -0.75 5.0625 -3 7 C-4.32 6.67 -5.64 6.34 -7 6 C-4.69 4.02 -2.38 2.04 0 0 Z " fill="#90B5F3" transform="translate(90,71)"/>
<path d="M0 0 C0.99 0.99 1.98 1.98 3 3 C2.25 4.9375 2.25 4.9375 1 7 C-1.125 7.75 -1.125 7.75 -3 8 C-1.125 2.25 -1.125 2.25 0 0 Z " fill="#7FA5F3" transform="translate(34,143)"/>
<path d="M0 0 C1.32 0.33 2.64 0.66 4 1 C4 1.66 4 2.32 4 3 C4.66 3 5.32 3 6 3 C6.33 4.65 6.66 6.3 7 8 C1.125 3.375 1.125 3.375 0 0 Z " fill="#96B4F1" transform="translate(66,386)"/>
<path d="M0 0 C1.46067199 0.45082469 2.91848032 0.91093537 4.375 1.375 C5.18710937 1.63023438 5.99921875 1.88546875 6.8359375 2.1484375 C9 3 9 3 11 5 C10.01 5.495 10.01 5.495 9 6 C8.01 5.67 7.02 5.34 6 5 C6 4.34 6 3.68 6 3 C4.02 3 2.04 3 0 3 C0 2.01 0 1.02 0 0 Z " fill="#92B2F0" transform="translate(315,33)"/>
<path d="M0 0 C0.66 0 1.32 0 2 0 C3.1577506 3.47325181 3.06866652 6.36067448 3 10 C2.34 9.67 1.68 9.34 1 9 C0.5859375 6.93359375 0.5859375 6.93359375 0.375 4.4375 C0.30023437 3.61121094 0.22546875 2.78492188 0.1484375 1.93359375 C0.09945313 1.29550781 0.05046875 0.65742188 0 0 Z " fill="#81A6ED" transform="translate(19,294)"/>
<path d="M0 0 C0.66 0.33 1.32 0.66 2 1 C0.10595266 4.34243648 -0.94091591 4.97997149 -4.6875 6.25 C-6.3271875 6.62125 -6.3271875 6.62125 -8 7 C-5.42215154 4.35247996 -3.08351902 2.05567935 0 0 Z " fill="#9ABBF2" transform="translate(112,54)"/>
<path d="M0 0 C0.66 0.99 1.32 1.98 2 3 C0.625 6.6875 0.625 6.6875 -1 10 C-1.66 10 -2.32 10 -3 10 C-2.01 6.7 -1.02 3.4 0 0 Z " fill="#8AADF2" transform="translate(30,151)"/>
<path d="M0 0 C0.33 0.66 0.66 1.32 1 2 C-5.625 1.25 -5.625 1.25 -9 -1 C-5.25616401 -2.03995444 -3.27217674 -2.22040564 0 0 Z " fill="#8DB1F1" transform="translate(180,455)"/>
<path d="M0 0 C0.99 0 1.98 0 3 0 C1.75453595 3.73639216 0.36595047 4.18756513 -3 6 C-3.33 4.68 -3.66 3.36 -4 2 C-2.68 2 -1.36 2 0 2 C0 1.34 0 0.68 0 0 Z " fill="#88ADEE" transform="translate(368,416)"/>
<path d="M0 0 C4.75 0.75 4.75 0.75 7 3 C6.67 3.99 6.34 4.98 6 6 C3.97945196 4.35830472 1.97956942 2.69088222 0 1 C0 0.67 0 0.34 0 0 Z " fill="#8FB4F1" transform="translate(95,414)"/>
<path d="M0 0 C3.16115776 1.36983503 3.9927092 1.9890638 6 5 C5.625 7.1875 5.625 7.1875 5 9 C4.16094435 7.87926138 3.32892169 6.75325453 2.5 5.625 C2.0359375 4.99851562 1.571875 4.37203125 1.09375 3.7265625 C0 2 0 2 0 0 Z " fill="#95B6F0" transform="translate(46,359)"/>
<path d="M0 0 C0.66 0 1.32 0 2 0 C0.84414715 3.91211733 -0.35534962 6.8745041 -3 10 C-2.49287967 6.28111761 -1.88391785 3.26545761 0 0 Z " fill="#8CADF0" transform="translate(433,338)"/>
<path d="M0 0 C0.33 3.3 0.66 6.6 1 10 C-1.6855594 7.3144406 -2.06049974 4.62378672 -3 1 C-1 0 -1 0 0 0 Z " fill="#8CB1F0" transform="translate(29,318)"/>
<path d="M0 0 C2.05078125 0.03255208 4.1015625 0.06510417 6.15234375 0.09765625 C6.15234375 0.42765625 6.15234375 0.75765625 6.15234375 1.09765625 C5.07984375 1.36578125 4.00734375 1.63390625 2.90234375 1.91015625 C-0.41274553 2.95993452 -2.28643271 3.84377953 -4.84765625 6.09765625 C-2.55432956 0.13500685 -2.55432956 0.13500685 0 0 Z " fill="#02091D" transform="translate(269.84765625,233.90234375)"/>
<path d="M0 0 C2.27795022 2.27795022 3.05219877 3.93787293 4 7 C3.625 9.3125 3.625 9.3125 3 11 C0.43383368 7.15075052 0.44902324 4.5650696 0 0 Z " fill="#8DADF0" transform="translate(440,155)"/>
<path d="M0 0 C1.65 1.65 3.3 3.3 5 5 C1.86650268 6.04449911 1.01031744 5.93423645 -2 5 C-2 4.34 -2 3.68 -2 3 C-1.34 2.67 -0.68 2.34 0 2 C0 1.34 0 0.68 0 0 Z " fill="#87AFF4" transform="translate(395,86)"/>
<path d="M0 0 C1.98 1.65 3.96 3.3 6 5 C5.34 5.66 4.68 6.32 4 7 C3.67 6.01 3.34 5.02 3 4 C1.35 3.67 -0.3 3.34 -2 3 C-1.34 2.01 -0.68 1.02 0 0 Z " fill="#8DB3EE" transform="translate(389,80)"/>
<path d="M0 0 C0.28875 0.598125 0.5775 1.19625 0.875 1.8125 C2.04742026 4.19327792 2.04742026 4.19327792 4 7 C3.625 9.1875 3.625 9.1875 3 11 C0.29417212 7.16674383 -0.32613618 4.67461851 0 0 Z " fill="#85AAF0" transform="translate(42,348)"/>
<path d="M0 0 C2.02054804 1.64169528 4.02043058 3.30911778 6 5 C6 5.33 6 5.66 6 6 C4.35 6 2.7 6 1 6 C0.4465236 3.92446352 0 2.15634036 0 0 Z " fill="#8BB1F3" transform="translate(377,69)"/>
<path d="M0 0 C2.31 0 4.62 0 7 0 C7 0.66 7 1.32 7 2 C7.66 2.33 8.32 2.66 9 3 C2.84765625 2.4140625 2.84765625 2.4140625 1 2 C0.67 1.34 0.34 0.68 0 0 Z " fill="#8BAEEE" transform="translate(185,457)"/>
<path d="M0 0 C0.99 0.33 1.98 0.66 3 1 C3 1.66 3 2.32 3 3 C4.98 3 6.96 3 9 3 C9 3.33 9 3.66 9 4 C1.25 4.125 1.25 4.125 -1 3 C-0.67 2.01 -0.34 1.02 0 0 Z " fill="#6293F1" transform="translate(193,456)"/>
<path d="M0 0 C2.3125 -0.3125 2.3125 -0.3125 5 0 C6.8125 2.5 6.8125 2.5 8 5 C4.62496331 3.8141763 2.35277269 2.72426311 0 0 Z " fill="#90B2F1" transform="translate(111,426)"/>
<path d="M0 0 C1.32 0.66 2.64 1.32 4 2 C2.35 3.65 0.7 5.3 -1 7 C-0.67 4.69 -0.34 2.38 0 0 Z " fill="#86ACF2" transform="translate(405,379)"/>
<path d="M0 0 C0.66 0.33 1.32 0.66 2 1 C1.43628586 4.26954202 0.50037734 5.82575883 -2 8 C-2 6.35 -2 4.7 -2 3 C-1.34 3 -0.68 3 0 3 C0 2.01 0 1.02 0 0 Z " fill="#7FA7EC" transform="translate(413,369)"/>
<path d="M0 0 C0.33 1.32 0.66 2.64 1 4 C-2.3 4 -5.6 4 -9 4 C-9 3.67 -9 3.34 -9 3 C-8.43410156 2.86722656 -7.86820313 2.73445312 -7.28515625 2.59765625 C-6.18494141 2.33275391 -6.18494141 2.33275391 -5.0625 2.0625 C-4.33160156 1.88847656 -3.60070312 1.71445313 -2.84765625 1.53515625 C-1.00030102 1.16112431 -1.00030102 1.16112431 0 0 Z " fill="#648CE2" transform="translate(204,248)"/>
<path d="M0 0 C0.33 1.32 0.66 2.64 1 4 C0.34 4 -0.32 4 -1 4 C-1 4.99 -1 5.98 -1 7 C-1.99 7 -2.98 7 -4 7 C-2.92598892 4.08482708 -2.22189824 2.22189824 0 0 Z " fill="#94B3F0" transform="translate(59,103)"/>
<path d="M0 0 C0.66 0.33 1.32 0.66 2 1 C-0.52788007 3.79872437 -2.20411134 5.45773019 -6 6 C-4 4 -2 2 0 0 Z " fill="#9AB8F0" transform="translate(102,61)"/>
</svg>
